<?xml version="1.0" encoding="utf-8"?>
<!-- Generator: Adobe Illustrator 24.3.0, SVG Export Plug-In . SVG Version: 6.00 Build 0)  -->
<svg version="1.1" id="Layer_1" xmlns="http://www.w3.org/2000/svg" xmlns:xlink="http://www.w3.org/1999/xlink" x="0px" y="0px"
	 viewBox="0 0 841.89 595.28" style="enable-background:new 0 0 841.89 595.28;" xml:space="preserve">
<style type="text/css">
	.st0{fill:url(#SVGID_1_);}
	.st1{fill:#353535;}
	.st2{font-family:'Poppins-SemiBold';}
	.st3{font-size:112.5317px;}
	.st4{fill:#3C3C3B;}
	.st5{font-family:'Comfortaa-Medium';}
	.st6{font-size:23.5897px;}
</style>
<linearGradient id="SVGID_1_" gradientUnits="userSpaceOnUse" x1="156.9048" y1="199.9183" x2="490.5165" y2="199.9183">
	<stop  offset="0" style="stop-color:#00457B"/>
	<stop  offset="1" style="stop-color:#1D71AA"/>
</linearGradient>
<path class="st0" d="M365.98,90.09l33.61,69.02l-51.29,103.65c-14.25,28.78-43.58,47-75.7,47h-9.13L365.98,90.09z M385.1,309.75
	h9.13c32.12,0,61.45-18.21,75.7-47l51.29-103.65l-33.61-69.02L385.1,309.75z M553.31,309.75h43.77l-46.39-93.64l-25.54,45.6
	C513.11,283.22,528.66,309.75,553.31,309.75z"/>
<text transform="matrix(1 0 0 1 184.6159 429.9512)" class="st1 st2 st3">Medivue</text>
<text transform="matrix(1 0 0 1 277.895 460.625)" class="st4 st5 st6">HEALTH AND WELLNESS</text>
</svg>
